<?xml version="1.0" encoding="UTF-8"?>
<svg id="Camada_2" data-name="Camada 2" xmlns="http://www.w3.org/2000/svg" viewBox="0 0 32.24 24.57">
  <g id="ELEMENTS">
    <path d="M27.31,2.05c-2.12-.97-4.35-1.67-6.65-2.05-.29.51-.62,1.2-.85,1.75-2.44-.36-4.93-.36-7.37,0-.26-.6-.55-1.18-.87-1.75-2.3.39-4.54,1.08-6.66,2.06C.71,8.32-.43,14.43.14,20.45c2.46,1.83,5.22,3.22,8.16,4.12.66-.9,1.25-1.84,1.75-2.84-.95-.36-1.87-.8-2.75-1.31.23-.17.45-.35.66-.52,5.17,2.44,11.16,2.44,16.32,0,.22.18.45.36.67.52-.88.52-1.8.96-2.76,1.32.5.99,1.09,1.94,1.75,2.83,2.94-.89,5.7-2.28,8.16-4.12.66-6.97-1.15-13.03-4.8-18.39ZM10.76,16.75c-1.59,0-2.9-1.46-2.9-3.25s1.28-3.26,2.9-3.26,2.91,1.46,2.9,3.25-1.28,3.26-2.9,3.26ZM21.47,16.75c-1.59,0-2.9-1.46-2.9-3.25s1.28-3.26,2.9-3.26,2.91,1.46,2.9,3.25-1.28,3.26-2.9,3.26Z"/>
  </g>
</svg>