<?xml version="1.0" encoding="UTF-8"?>
<svg id="Camada_2" data-name="Camada 2" xmlns="http://www.w3.org/2000/svg" viewBox="0 0 25.48 25.48">
  <g id="ELEMENTS">
    <path d="M12.74,0C5.56,0,0,5.26,0,12.36c0,3.71,1.52,6.92,4,9.14.21.18.33.45.34.73l.07,2.27c.02.56.49,1,1.05.99.13,0,.26-.03.38-.09l2.53-1.11c.21-.1.46-.11.68-.05,1.16.32,2.4.49,3.69.49,7.17,0,12.74-5.26,12.74-12.36S19.91,0,12.74,0ZM20.39,9.51l-3.74,5.93c-.56.89-1.74,1.16-2.64.6-.04-.03-.09-.06-.13-.09l-2.98-2.23c-.27-.2-.65-.2-.92,0l-4.02,3.05c-.53.41-1.24-.23-.88-.8l3.74-5.94c.56-.89,1.74-1.16,2.63-.6.04.03.09.06.13.09l2.98,2.23c.27.2.65.2.92,0l4.02-3.05c.53-.41,1.24.24.88.81Z"/>
  </g>
</svg>