<?xml version="1.0" encoding="UTF-8"?>
<svg id="Camada_2" data-name="Camada 2" xmlns="http://www.w3.org/2000/svg" viewBox="0 0 31.02 29.32">
  <g id="ELEMENTS">
    <path d="M15.51,29.32c-1.22,0-2.44-.35-3.63-1.04-.45-.26-.89-.55-1.32-.85l-.53-.35c-.35-.23-.74-.37-1.23-.44-.17-.03-.35-.04-.52-.04-.41,0-.84.06-1.3.12-.23.03-.45.06-.68.09-.1.01-.2.02-.29.02-1.01,0-1.72-.61-1.77-1.53-.02-.4-.03-.54-.88-.63-.61-.07-1.17-.3-1.62-.49-.81-.34-1.36-.83-1.65-1.49l-.09-.2v-1.04l.24-.28c.26-.3.64-.66,1.25-.78,1.85-.37,3.29-1.48,4.51-3.52.29-.48.4-.73.45-.86-.12-.07-.38-.2-.94-.4-.18-.06-.28-.09-.37-.13-.47-.19-.96-.41-1.41-.8-.63-.54-.89-1.32-.71-2.06.2-.81.88-1.45,1.77-1.67.18-.04.37-.07.56-.07.48,0,.89.14,1.25.26-.08-1-.08-2.07-.02-3.33.13-2.73,1.46-4.92,3.85-6.33,1.65-.98,3.36-1.47,5.08-1.47s3.39.49,5.03,1.45c2.22,1.3,3.54,3.28,3.83,5.73.16,1.35.12,2.68.04,3.93.36-.11.76-.23,1.22-.23.37,0,.73.08,1.07.23.86.38,1.41,1.17,1.39,2-.01.57-.3,1.14-.78,1.56-.47.41-1.01.62-1.48.82l-.11.04c-.15.06-.3.11-.44.17-.19.07-.38.14-.56.22-.05.02-.09.05-.12.07,0,.02.02.04.03.06,1.16,2.45,2.7,3.82,4.84,4.32.59.14,1.04.42,1.37.85l.2.27v1.02l-.1.21c-.34.69-.92,1.19-1.78,1.51l-.15.06c-.52.2-1.1.42-1.77.47-.24.02-.3.06-.3.06,0,0-.05.06-.09.29-.06.42-.25,1.69-1.81,1.69-.12,0-.25,0-.4-.02-.2-.02-.41-.05-.61-.09-.44-.08-.81-.11-1.15-.11-.94,0-1.7.26-2.38.81-.23.19-.48.35-.74.51l-.14.09c-1.35.87-2.72,1.32-4.09,1.32Z"/>
  </g>
</svg>