<?xml version="1.0" encoding="UTF-8"?>
<svg id="Camada_2" data-name="Camada 2" xmlns="http://www.w3.org/2000/svg" viewBox="0 0 30.04 24.84">
  <g id="ELEMENTS">
    <path d="M1.84,10.82S15.13,5.36,19.74,3.44c1.77-.77,7.76-3.23,7.76-3.23,0,0,2.76-1.08,2.53,1.54-.08,1.08-.69,4.84-1.31,8.91-.92,5.76-1.92,12.06-1.92,12.06,0,0-.15,1.77-1.46,2.07-1.31.31-3.46-1.07-3.84-1.38-.31-.23-5.76-3.69-7.76-5.38-.54-.46-1.15-1.38.08-2.46,2.76-2.53,6.07-5.68,8.06-7.68.92-.92,1.84-3.07-2-.46-5.45,3.76-10.83,7.3-10.83,7.3,0,0-1.23.77-3.53.08-2.3-.69-4.99-1.61-4.99-1.61,0,0-1.84-1.15,1.31-2.38h0Z"/>
  </g>
</svg>